<?xml version="1.0" encoding="UTF-8"?>
<svg xmlns="http://www.w3.org/2000/svg" xmlns:xlink="http://www.w3.org/1999/xlink" width="857pt" height="300pt" viewBox="0 0 857 300" version="1.1">
<g id="surface263">
<path style="fill:none;stroke-width:0.01;stroke-linecap:butt;stroke-linejoin:miter;stroke:rgb(0%,0%,0%);stroke-opacity:1;stroke-miterlimit:10;" d="M 0 0.25 L 1 0.25 M 0 0.5 L 0.843646 0.5 M 0 0.75 L 0.504089 0.75 " transform="matrix(300,0,0,300,0,0)"/>
<path style="fill:none;stroke-width:0.01;stroke-linecap:butt;stroke-linejoin:miter;stroke:rgb(0%,0%,0%);stroke-opacity:1;stroke-miterlimit:10;" d="M 0.369896 0.23 L 0.410742 0.23 L 0.410742 0.27 L 0.369896 0.27 Z M 0.357057 0.48 L 0.593932 0.48 L 0.593932 0.52 L 0.357057 0.52 Z M 0.196029 0.73 L 0.306875 0.73 L 0.306875 0.77 L 0.196029 0.77 Z M 0.196029 0.73 " transform="matrix(300,0,0,300,0,0)"/>
<path style="fill:none;stroke-width:0.005;stroke-linecap:butt;stroke-linejoin:miter;stroke:rgb(100%,0%,0%);stroke-opacity:1;stroke-miterlimit:10;" d="M 0.00816406 0.273333 L 0.00816406 0.226667 M 0.151693 0.273333 L 0.151693 0.226667 M 0.171523 0.273333 L 0.171523 0.226667 M 0.253203 0.273333 L 0.253203 0.226667 M 0.394401 0.273333 L 0.394401 0.226667 M 0.44224 0.273333 L 0.44224 0.226667 M 0.0198307 0.523333 L 0.0198307 0.476667 M 0.483086 0.523333 L 0.483086 0.476667 M 0.542591 0.523333 L 0.542591 0.476667 M 0.0431771 0.773333 L 0.0431771 0.726667 M 0.0571745 0.773333 L 0.0571745 0.726667 M 0.136523 0.773333 L 0.136523 0.726667 M 0.197201 0.773333 L 0.197201 0.726667 M 0.228711 0.773333 L 0.228711 0.726667 M 0.499414 0.773333 L 0.499414 0.726667 " transform="matrix(300,0,0,300,0,0)"/>
<path style="fill:none;stroke-width:0.005;stroke-linecap:butt;stroke-linejoin:miter;stroke:rgb(0%,0%,100%);stroke-opacity:1;stroke-miterlimit:10;" d="M 0.00466146 0.273333 L 0.00466146 0.226667 M 0.0175 0.273333 L 0.0175 0.226667 M 0.11668 0.273333 L 0.11668 0.226667 M 0.183203 0.273333 L 0.183203 0.226667 M 0.0128385 0.523333 L 0.0128385 0.476667 M 0.350052 0.523333 L 0.350052 0.476667 M 0.583424 0.523333 L 0.583424 0.476667 M 0.0233333 0.773333 L 0.0233333 0.726667 M 0.0816797 0.773333 L 0.0816797 0.726667 M 0.129518 0.773333 L 0.129518 0.726667 M 0.151693 0.773333 L 0.151693 0.726667 M 0.186693 0.773333 L 0.186693 0.726667 M 0.350052 0.773333 L 0.350052 0.726667 M 0.408398 0.773333 L 0.408398 0.726667 M 0.495911 0.773333 L 0.495911 0.726667 " transform="matrix(300,0,0,300,0,0)"/>
<path style="fill:none;stroke-width:0.005;stroke-linecap:butt;stroke-linejoin:miter;stroke:rgb(0%,50%,0%);stroke-opacity:1;stroke-miterlimit:10;" d="M 0.00700521 0.273333 L 0.00700521 0.226667 M 0.0139974 0.273333 L 0.0139974 0.226667 M 0.122526 0.273333 L 0.122526 0.226667 M 0.350052 0.273333 L 0.350052 0.226667 M 0.466745 0.523333 L 0.466745 0.476667 M 0.035 0.523333 L 0.035 0.476667 M 0.0583464 0.523333 L 0.0583464 0.476667 M 0.0816797 0.523333 L 0.0816797 0.476667 M 0.0408464 0.773333 L 0.0408464 0.726667 M 0.087513 0.773333 L 0.087513 0.726667 M 0.402565 0.773333 L 0.402565 0.726667 " transform="matrix(300,0,0,300,0,0)"/>
</g>
</svg>
